<svg width="139" height="56" viewBox="0 0 139 56" fill="none" xmlns="http://www.w3.org/2000/svg">
<path d="M12.92 45.12H40.76V54H1.88V1.2H12.92V45.12ZM62.18 54.8C59.5133 54.8 57.1133 54.32 54.98 53.36C52.8467 52.4 51.14 50.88 49.86 48.8C48.6333 46.72 48.02 43.9733 48.02 40.56V14H58.98V37.92C58.98 41.0133 59.62 43.1733 60.9 44.4C62.18 45.5733 64.02 46.16 66.42 46.16C68.7133 46.16 70.74 45.3333 72.5 43.68C74.3133 41.9733 75.22 39.2533 75.22 35.52V14H86.18V54H76.42L76.02 47.04C74.6867 49.6533 72.8467 51.6 70.5 52.88C68.1533 54.16 65.38 54.8 62.18 54.8ZM106.593 14L114.993 27.92L123.473 14H135.873L121.713 33.76L136.113 54H123.393L114.513 39.52L105.473 54H93.0731L107.793 33.76L93.7931 14H106.593Z" fill="white"/>
<path d="M12.92 45.12H11.92V46.12H12.92V45.12ZM40.76 45.12H41.76V44.12H40.76V45.12ZM40.76 54V55H41.76V54H40.76ZM1.88 54H0.88V55H1.88V54ZM1.88 1.2V0.199998H0.88V1.2H1.88ZM12.92 1.2H13.92V0.199998H12.92V1.2ZM12.92 46.12H40.76V44.12H12.92V46.12ZM39.76 45.12V54H41.76V45.12H39.76ZM40.76 53H1.88V55H40.76V53ZM2.88 54V1.2H0.88V54H2.88ZM1.88 2.2H12.92V0.199998H1.88V2.2ZM11.92 1.2V45.12H13.92V1.2H11.92ZM54.98 53.36L54.5696 54.2719L54.5696 54.2719L54.98 53.36ZM49.86 48.8L48.9986 49.308L49.0034 49.3161L49.0083 49.3241L49.86 48.8ZM48.02 14V13H47.02V14H48.02ZM58.98 14H59.98V13H58.98V14ZM60.9 44.4L60.2081 45.122L60.2161 45.1297L60.2243 45.1372L60.9 44.4ZM72.5 43.68L73.1847 44.4088L73.1854 44.4082L72.5 43.68ZM75.22 14V13H74.22V14H75.22ZM86.18 14H87.18V13H86.18V14ZM86.18 54V55H87.18V54H86.18ZM76.42 54L75.4216 54.0574L75.4758 55H76.42V54ZM76.02 47.04L77.0184 46.9826L76.8066 43.2979L75.1292 46.5855L76.02 47.04ZM70.5 52.88L70.9789 53.7579L70.5 52.88ZM62.18 53.8C59.6351 53.8 57.3778 53.3424 55.3904 52.4481L54.5696 54.2719C56.8489 55.2976 59.3916 55.8 62.18 55.8V53.8ZM55.3904 52.4481C53.448 51.574 51.8916 50.1933 50.7117 48.2759L49.0083 49.3241C50.3884 51.5667 52.2454 53.226 54.5696 54.2719L55.3904 52.4481ZM50.7214 48.292C49.6154 46.4168 49.02 43.8647 49.02 40.56H47.02C47.02 44.0819 47.6512 47.0232 48.9986 49.308L50.7214 48.292ZM49.02 40.56V14H47.02V40.56H49.02ZM48.02 15H58.98V13H48.02V15ZM57.98 14V37.92H59.98V14H57.98ZM57.98 37.92C57.98 41.0966 58.6272 43.6069 60.2081 45.122L61.5919 43.678C60.6128 42.7397 59.98 40.93 59.98 37.92H57.98ZM60.2243 45.1372C61.7491 46.5349 63.8661 47.16 66.42 47.16V45.16C64.1739 45.16 62.6109 44.6117 61.5757 43.6628L60.2243 45.1372ZM66.42 47.16C68.9822 47.16 71.2501 46.2262 73.1847 44.4088L71.8153 42.9512C70.2299 44.4405 68.4445 45.16 66.42 45.16V47.16ZM73.1854 44.4082C75.2814 42.4355 76.22 39.3917 76.22 35.52H74.22C74.22 39.115 73.3453 41.5112 71.8146 42.9518L73.1854 44.4082ZM76.22 35.52V14H74.22V35.52H76.22ZM75.22 15H86.18V13H75.22V15ZM85.18 14V54H87.18V14H85.18ZM86.18 53H76.42V55H86.18V53ZM77.4184 53.9426L77.0184 46.9826L75.0216 47.0974L75.4216 54.0574L77.4184 53.9426ZM75.1292 46.5855C73.8781 49.0377 72.1738 50.8279 70.0211 52.0021L70.9789 53.7579C73.5195 52.3721 75.4952 50.2689 76.9108 47.4945L75.1292 46.5855ZM70.0211 52.0021C67.8478 53.1876 65.2456 53.8 62.18 53.8V55.8C65.5144 55.8 68.4589 55.1324 70.9789 53.7579L70.0211 52.0021ZM106.593 14L107.449 13.4833L107.158 13H106.593V14ZM114.993 27.92L114.137 28.4367L114.989 29.8488L115.847 28.4403L114.993 27.92ZM123.473 14V13H122.911L122.619 13.4797L123.473 14ZM135.873 14L136.686 14.5825L137.82 13H135.873V14ZM121.713 33.76L120.9 33.1775L120.484 33.7579L120.898 34.3397L121.713 33.76ZM136.113 54V55H138.052L136.928 53.4203L136.113 54ZM123.393 54L122.541 54.5228L122.833 55H123.393V54ZM114.513 39.52L115.366 38.9972L114.521 37.6195L113.665 38.9904L114.513 39.52ZM105.473 54V55H106.028L106.321 54.5296L105.473 54ZM93.0731 54L92.2644 53.4118L91.1094 55H93.0731V54ZM107.793 33.76L108.602 34.3482L109.024 33.7676L108.609 33.1819L107.793 33.76ZM93.7931 14V13H91.8591L92.9772 14.5781L93.7931 14ZM105.737 14.5167L114.137 28.4367L115.849 27.4033L107.449 13.4833L105.737 14.5167ZM115.847 28.4403L124.327 14.5203L122.619 13.4797L114.139 27.3997L115.847 28.4403ZM123.473 15H135.873V13H123.473V15ZM135.06 13.4175L120.9 33.1775L122.526 34.3425L136.686 14.5825L135.06 13.4175ZM120.898 34.3397L135.298 54.5797L136.928 53.4203L122.528 33.1803L120.898 34.3397ZM136.113 53H123.393V55H136.113V53ZM124.246 53.4772L115.366 38.9972L113.661 40.0428L122.541 54.5228L124.246 53.4772ZM113.665 38.9904L104.625 53.4704L106.321 54.5296L115.361 40.0496L113.665 38.9904ZM105.473 53H93.0731V55H105.473V53ZM93.8819 54.5882L108.602 34.3482L106.984 33.1718L92.2644 53.4118L93.8819 54.5882ZM108.609 33.1819L94.6091 13.4219L92.9772 14.5781L106.977 34.3381L108.609 33.1819ZM93.7931 15H106.593V13H93.7931V15Z" fill="white"/>
</svg>
