<?xml version="1.0" encoding="UTF-8"?>
<svg width="140px" height="81px" viewBox="0 0 140 81" version="1.1" xmlns="http://www.w3.org/2000/svg" xmlns:xlink="http://www.w3.org/1999/xlink">
    <title>lux</title>
    <g id="Page-1" stroke="none" stroke-width="1" fill="none" fill-rule="evenodd">
        <g id="Artboard" transform="translate(-130.000000, -124.000000)" fill="#FCFCFD" fill-rule="nonzero">
            <path d="M142.065,203 L142.065,124.79 L130.383,124.79 L130.383,203 L142.065,203 Z M174.339,204.584 C182.754,204.584 188.694,200.624 192.258,194.684 L192.258,203 L203.841,203 L203.841,151.52 L192.258,151.52 L192.258,177.26 C192.258,187.457 186.714,194.585 178.299,194.585 C171.171,194.585 167.112,189.437 167.112,181.22 L167.112,151.52 L155.43,151.52 L155.43,181.715 C155.43,196.763 161.766,204.584 174.339,204.584 Z M228.096,203 L241.857,185.873 L255.519,203 L269.577,203 L248.787,177.161 L269.28,151.52 L255.321,151.52 L241.857,168.35 L228.294,151.52 L214.335,151.52 L234.828,177.161 L214.038,203 L228.096,203 Z" id="lux"></path>
        </g>
    </g>
</svg>