<svg width="81" height="33" viewBox="0 0 81 33" fill="none" xmlns="http://www.w3.org/2000/svg">
<path d="M6.67574 26.7098H23.2613V32H0.0987234V0.544681H6.67574V26.7098ZM36.0221 32.4766C34.4335 32.4766 33.0037 32.1906 31.7328 31.6187C30.4618 31.0468 29.4451 30.1413 28.6826 28.9021C27.9518 27.663 27.5864 26.0267 27.5864 23.9932V8.17021H34.1157V22.4204C34.1157 24.2633 34.497 25.5501 35.2596 26.2809C36.0221 26.9799 37.1183 27.3294 38.5481 27.3294C39.9143 27.3294 41.1217 26.8369 42.1702 25.8519C43.2505 24.8352 43.7906 23.2148 43.7906 20.9906V8.17021H50.32V32H44.5055L44.2672 27.8536C43.4729 29.4105 42.3767 30.5702 40.9787 31.3328C39.5807 32.0953 37.9285 32.4766 36.0221 32.4766ZM62.481 8.17021L67.4853 16.463L72.5372 8.17021H79.9244L71.4887 19.9421L80.0674 32H72.4895L67.1993 23.3736L61.8138 32H54.4265L63.1959 19.9421L54.8555 8.17021H62.481Z" fill="white"/>
<path d="M6.67575 26.7098H6.08V27.3055H6.67575V26.7098ZM23.2613 26.7098H23.857V26.114H23.2613V26.7098ZM23.2613 32V32.5957H23.857V32H23.2613ZM0.0987234 32H-0.497021V32.5957H0.0987234V32ZM0.0987234 0.544681V-0.0510635H-0.497021V0.544681H0.0987234ZM6.67575 0.544681H7.27149V-0.0510635H6.67575V0.544681ZM6.67575 27.3055H23.2613V26.114H6.67575V27.3055ZM22.6655 26.7098V32H23.857V26.7098H22.6655ZM23.2613 31.4043H0.0987234V32.5957H23.2613V31.4043ZM0.694468 32V0.544681H-0.497021V32H0.694468ZM0.0987234 1.14043H6.67575V-0.0510635H0.0987234V1.14043ZM6.08 0.544681V26.7098H7.27149V0.544681H6.08ZM31.7328 31.6187L31.4883 32.162L31.7328 31.6187ZM28.6826 28.9021L28.1693 29.2048L28.1752 29.2144L28.6826 28.9021ZM27.5864 8.17021V7.57447H26.9906V8.17021H27.5864ZM34.1157 8.17021H34.7115V7.57447H34.1157V8.17021ZM35.2596 26.2808L34.8473 26.7111L34.857 26.72L35.2596 26.2808ZM42.1702 25.8519L42.5781 26.2861L42.5785 26.2857L42.1702 25.8519ZM43.7906 8.17021V7.57447H43.1949V8.17021H43.7906ZM50.32 8.17021H50.9157V7.57447H50.32V8.17021ZM50.32 32V32.5957H50.9157V32H50.32ZM44.5055 32L43.9108 32.0342L43.943 32.5957H44.5055V32ZM44.2672 27.8536L44.862 27.8194L44.7358 25.6243L43.7366 27.5829L44.2672 27.8536ZM40.9787 31.3328L41.264 31.8558L40.9787 31.3328ZM36.0221 31.8809C34.506 31.8809 33.1612 31.6083 31.9772 31.0755L31.4883 32.162C32.8461 32.773 34.361 33.0723 36.0221 33.0723V31.8809ZM31.9772 31.0755C30.8201 30.5547 29.8929 29.7322 29.1899 28.5899L28.1752 29.2144C28.9973 30.5504 30.1036 31.5389 31.4883 32.162L31.9772 31.0755ZM29.1957 28.5995C28.5369 27.4823 28.1821 25.962 28.1821 23.9932H26.9906C26.9906 26.0914 27.3667 27.8436 28.1694 29.2048L29.1957 28.5995ZM28.1821 23.9932V8.17021H26.9906V23.9932H28.1821ZM27.5864 8.76596H34.1157V7.57447H27.5864V8.76596ZM33.52 8.17021V22.4204H34.7115V8.17021H33.52ZM33.52 22.4204C33.52 24.3129 33.9055 25.8084 34.8474 26.711L35.6718 25.8507C35.0885 25.2918 34.7115 24.2136 34.7115 22.4204H33.52ZM34.857 26.72C35.7654 27.5527 37.0266 27.9251 38.5481 27.9251V26.7336C37.21 26.7336 36.2788 26.407 35.6621 25.8417L34.857 26.72ZM38.5481 27.9251C40.0745 27.9251 41.4256 27.3688 42.5781 26.2861L41.7623 25.4177C40.8178 26.305 39.7541 26.7336 38.5481 26.7336V27.9251ZM42.5785 26.2857C43.8272 25.1105 44.3864 23.2972 44.3864 20.9906H43.1949C43.1949 23.1323 42.6738 24.5598 41.7619 25.4181L42.5785 26.2857ZM44.3864 20.9906V8.17021H43.1949V20.9906H44.3864ZM43.7906 8.76596H50.32V7.57447H43.7906V8.76596ZM49.7243 8.17021V32H50.9157V8.17021H49.7243ZM50.32 31.4043H44.5055V32.5957H50.32V31.4043ZM45.1003 31.9658L44.862 27.8194L43.6725 27.8878L43.9108 32.0342L45.1003 31.9658ZM43.7366 27.5829C42.9912 29.0438 41.9759 30.1103 40.6934 30.8098L41.264 31.8558C42.7776 31.0302 43.9546 29.7772 44.7979 28.1244L43.7366 27.5829ZM40.6934 30.8098C39.3987 31.516 37.8484 31.8809 36.0221 31.8809V33.0723C38.0086 33.0723 39.7628 32.6746 41.264 31.8558L40.6934 30.8098ZM62.481 8.17021L62.9911 7.86241L62.8173 7.57447H62.481V8.17021ZM67.4853 16.463L66.9752 16.7708L67.4828 17.612L67.994 16.7729L67.4853 16.463ZM72.5372 8.17021V7.57447H72.2025L72.0284 7.86027L72.5372 8.17021ZM79.9244 8.17021L80.4087 8.51723L81.0842 7.57447H79.9244V8.17021ZM71.4887 19.9421L71.0044 19.5951L70.7566 19.9409L71.0032 20.2875L71.4887 19.9421ZM80.0674 32V32.5957H81.2224L80.5528 31.6546L80.0674 32ZM72.4895 32L71.9817 32.3114L72.156 32.5957H72.4895V32ZM67.1993 23.3736L67.7072 23.0622L67.2038 22.2414L66.694 23.0581L67.1993 23.3736ZM61.8138 32V32.5957H62.1442L62.3191 32.3155L61.8138 32ZM54.4265 32L53.9447 31.6496L53.2566 32.5957H54.4265V32ZM63.1959 19.9421L63.6777 20.2925L63.9292 19.9467L63.682 19.5977L63.1959 19.9421ZM54.8555 8.17021V7.57447H53.7033L54.3694 8.51462L54.8555 8.17021ZM61.9709 8.47801L66.9752 16.7708L67.9953 16.1552L62.9911 7.86241L61.9709 8.47801ZM67.994 16.7729L73.046 8.48015L72.0284 7.86027L66.9765 16.153L67.994 16.7729ZM72.5372 8.76596H79.9244V7.57447H72.5372V8.76596ZM79.4402 7.8232L71.0044 19.5951L71.9729 20.2891L80.4087 8.51723L79.4402 7.8232ZM71.0032 20.2875L79.582 32.3454L80.5528 31.6546L71.9741 19.5968L71.0032 20.2875ZM80.0674 31.4043H72.4895V32.5957H80.0674V31.4043ZM72.9974 31.6886L67.7072 23.0622L66.6915 23.6851L71.9817 32.3114L72.9974 31.6886ZM66.694 23.0581L61.3084 31.6845L62.3191 32.3155L67.7047 23.6891L66.694 23.0581ZM61.8138 31.4043H54.4265V32.5957H61.8138V31.4043ZM54.9083 32.3504L63.6777 20.2925L62.7141 19.5917L53.9447 31.6496L54.9083 32.3504ZM63.682 19.5977L55.3416 7.82581L54.3694 8.51462L62.7098 20.2865L63.682 19.5977ZM54.8555 8.76596H62.481V7.57447H54.8555V8.76596Z" fill="white"/>
</svg>
